# xmcd CD database file
#
# Track frame offsets:
#	150
#	25400
#	37264
#	56070
#	77712
#	93699
#	110267
#	119533
#	137600
#	160474
#	168078
#	184539
#
# Disc length: 2665 seconds
#
# Revision: 0
# Processed by: cddbd v1.5.2PL0 Copyright (c) Steve Scherf et al.
# Submitted via: CDex 1.70beta2
#
DISCID=a10a670c
DTITLE=Rodolphe Raffalli - A Georges Brassens vol.2
DYEAR=2006
DGENRE=Jazz
TTITLE0=Chanson pour l'Auvergnat
TTITLE1=Les Sabots d'Hélène
TTITLE2=Bécassine
TTITLE3=Jeanne
TTITLE4=Les Ricochets
TTITLE5=Au bois de mon coeur
TTITLE6=Le Grand Chêne
TTITLE7=Le Parapluie
TTITLE8=La Mauvaise Réputation
TTITLE9=Rien à jeter
TTITLE10=Marinette
TTITLE11=La Chasse aux papillons
EXTD=YEAR: 2006
EXTT0=
EXTT1=
EXTT2=
EXTT3=
EXTT4=
EXTT5=
EXTT6=
EXTT7=
EXTT8=
EXTT9=
EXTT10=
EXTT11=
PLAYORDER=
